<?xml version="1.0"?>
<svg xmlns="http://www.w3.org/2000/svg" xmlns:xlink="http://www.w3.org/1999/xlink" version="1.1" id="Capa_1" x="0px" y="0px" viewBox="0 0 67 67" style="enable-background:new 0 0 67 67;" xml:space="preserve" width="512px" height="512px" class=""><g><g>
	<g>
		<path d="M65.25,33c0-1.104-0.896-2-2-2H24.838l8.511-8.32c0.781-0.781,0.781-1.952,0-2.733c-0.78-0.781-2.047-0.734-2.828,0.047    L17.707,32.832c-0.375,0.375-0.586,0.896-0.586,1.426s0.211,1.045,0.586,1.42l12.815,12.815c0.391,0.391,0.902,0.587,1.414,0.587    c0.512,0,1.024-0.194,1.415-0.585c0.781-0.781,0.781-2.237,0-3.018L23.062,35H63.25C64.354,35,65.25,34.104,65.25,33z" data-original="#000000" class="active-path" data-old_color="#007bff" fill="#007bff"/>
		<path d="M45.75,59.281v-11.9c0-1.104-0.896-2-2-2c-1.104,0-2,0.896-2,2v11.9c0,2.691-2.036,3.719-4.541,3.719H11.208    C8.82,63,5.75,62.098,5.75,59.281V9.541C5.75,6.841,8.613,4,11.208,4h26.001c2.592,0,4.541,2.889,4.541,5.541v11.84    c0,1.104,0.896,2,2,2c1.104,0,2-0.896,2-2V9.541C45.75,4.661,42.025,0,37.209,0H11.208C6.436,0,1.75,4.661,1.75,9.541v49.74    C1.75,63.898,6.101,67,11.208,67h26.001C42.363,67,45.75,63.898,45.75,59.281z" data-original="#000000" class="active-path" data-old_color="#007bff" fill="#007bff"/>
	</g>
</g></g> </svg>
