<?xml version="1.0" encoding="iso-8859-1"?>
<!-- Generator: Adobe Illustrator 19.0.0, SVG Export Plug-In . SVG Version: 6.00 Build 0)  -->
<svg version="1.1" id="Capa_1" xmlns="http://www.w3.org/2000/svg" xmlns:xlink="http://www.w3.org/1999/xlink" x="0px" y="0px"
	 viewBox="0 0 512 512" style="enable-background:new 0 0 512 512;" xml:space="preserve">
<g>
	<path style="fill:#FFB69E;" d="M341.221,198.859l-82.211-15.384c-10.727-2.008-17.795-12.331-15.787-23.059
		c2.008-10.727,12.326-17.795,23.059-15.788l67.236,12.583l23.775-50.208c4.671-9.864,16.453-14.073,26.315-9.402
		c9.863,4.671,14.073,16.453,9.402,26.315l-30.295,63.977C358.88,195.992,350.063,200.512,341.221,198.859z"/>
	<path style="fill:#FFB69E;" d="M316.209,389.549c-13.012-1.486-22.356-13.238-20.869-26.25l9.114-79.803l-68.815,23.411
		c-12.395,4.219-25.867-2.414-30.087-14.812c-4.217-12.398,2.414-25.868,14.813-30.087l104.26-35.47
		c16.449-5.595,33.168,7.863,31.197,25.139l-13.362,117C340.971,381.703,329.203,391.036,316.209,389.549z"/>
</g>
<circle style="fill:#F5A287;" cx="260.096" cy="78.395" r="40.954"/>
<path style="fill:#FFB69E;" d="M325.792,426.446l-50.265-66.719l-101.079-48.293c-11.817-5.646-16.819-19.802-11.174-31.618
	c5.646-11.816,19.801-16.82,31.618-11.173L301.2,319.435c3.436,1.642,6.426,4.086,8.717,7.128l53.752,71.347
	c7.881,10.46,5.789,25.328-4.671,33.207C348.586,438.962,333.708,436.952,325.792,426.446z"/>
<path style="fill:#FA2D14;" d="M301.063,234.556l-80.699,27.455c-12.399,4.218-19.029,17.688-14.813,30.086
	c4.219,12.398,17.691,19.03,30.087,14.812l68.815-23.41L301.063,234.556z"/>
<path style="fill:#F5A287;" d="M161.487,285.006l30.105-138.714c3.241-14.932,17.973-24.409,32.891-21.171l46.65,10.125
	c7.448,1.616,14.902,5.69,18.837,12.201s5.648,15.049,3.619,22.381l-37.163,128.214L161.487,285.006z"/>
<path style="fill:#FA503C;" d="M256.425,298.041L256.425,298.041l6.808-23.485l-96.608-13.218l-5.136,23.667l0.011,0.001
	c-2.289,10.507,2.826,21.589,12.95,26.426l80.591,38.504l24.077-41.056L256.425,298.041z"/>
<path style="fill:#FFB69E;" d="M132.63,19.388l-1.485,78.934c-0.124,6.616,3.07,12.854,8.512,16.622l79.136,54.761
	c8.975,6.21,21.284,3.969,27.494-5.006c6.215-8.971,3.969-21.284-5.006-27.494l-70.424-48.732l1.286-68.341
	c0.206-10.912-8.473-19.923-19.385-20.128C141.86-0.202,132.834,8.467,132.63,19.388z"/>
<g>
	<path style="fill:#41B4E6;" d="M236.117,460.76H44.808c-8.904,0-16.121-7.218-16.121-16.121c0-8.904,7.218-16.121,16.121-16.121
		h191.309c8.904,0,16.121,7.218,16.121,16.121C252.238,453.543,245.021,460.76,236.117,460.76z"/>
	<path style="fill:#41B4E6;" d="M467.191,512H275.96c-8.904,0-16.121-7.218-16.121-16.121c0-8.904,7.218-16.121,16.121-16.121
		h191.232c8.904,0,16.121,7.218,16.121,16.121C483.313,504.782,476.095,512,467.191,512z"/>
</g>
<path style="fill:#73C8F0;" d="M203.874,512h-63.412c-8.904,0-16.121-7.218-16.121-16.121c0-8.904,7.218-16.121,16.121-16.121
	h63.412c8.904,0,16.121,7.218,16.121,16.121C219.996,504.782,212.778,512,203.874,512z"/>
<g>
</g>
<g>
</g>
<g>
</g>
<g>
</g>
<g>
</g>
<g>
</g>
<g>
</g>
<g>
</g>
<g>
</g>
<g>
</g>
<g>
</g>
<g>
</g>
<g>
</g>
<g>
</g>
<g>
</g>
</svg>
