<svg xmlns="http://www.w3.org/2000/svg" xmlns:xlink="http://www.w3.org/1999/xlink" height="200" viewBox="0 0 795.65 239.95"><defs><style>.cls-1{fill:#353535;}.cls-2{fill:#2c9fba;}.cls-3{fill:#a5a5a5;}.cls-4{fill:#212121;}.cls-5{fill:#2d2d2d;}.cls-6{fill:#e52323;}.cls-7{fill:#fff;}.cls-8{fill:none;stroke:#2d2d2d;stroke-miterlimit:10;stroke-width:5.99px;}.cls-9{fill:#ff971a;}.cls-10{fill:url(#linear-gradient);}.cls-11{fill:#e57f0e;}.cls-12{fill:url(#linear-gradient-2);}.cls-13{fill:url(#linear-gradient-3);}</style><linearGradient id="linear-gradient" x1="106.2" y1="139.44" x2="106.2" y2="210.33" gradientUnits="userSpaceOnUse"><stop offset="0" stop-color="#ff971a"/><stop offset="0.2" stop-color="#ff9619"/><stop offset="1" stop-color="#ff7900"/></linearGradient><linearGradient id="linear-gradient-2" x1="48.5" y1="189.57" x2="66.25" y2="189.57" gradientUnits="userSpaceOnUse"><stop offset="0" stop-color="#dd4b3e"/><stop offset="1" stop-color="#dd4b3e"/></linearGradient><linearGradient id="linear-gradient-3" x1="147.28" y1="189.57" x2="165.03" y2="189.57" xlink:href="#linear-gradient-2"/></defs><title>Asset 2</title><g id="Layer_2" data-name="Layer 2"><g id="Layer_1-2" data-name="Layer 1"><path class="cls-1" d="M278.91,86.15q13.93,0,21.9,6.31t8,17.6a17.7,17.7,0,0,1-3.29,10.75,23,23,0,0,1-9.7,7.4q7.26,2.11,10.46,7.08a22.55,22.55,0,0,1,3.22,12.34v4.16a7.15,7.15,0,0,0,1.08,4.18,4.74,4.74,0,0,0,3.55,1.76l2,.28,0,9.9-8.49,0q-8,0-11.32-4.3t-3.3-11.18V147.8q0-6-3.21-9.36t-9-3.54l-13.44,0,.08,21.59,8.77,1.66,0,9.84-33.91.12,0-9.84,8.71-1.72-.2-58.77-8.72-1.66,0-9.9,8.71,0Zm-11.52,36.14,11.36,0q6.86,0,10.28-3c2.28-2,3.42-4.78,3.4-8.45a11.63,11.63,0,0,0-3.43-8.79Q285.58,98.78,279,98.8l-11.64,0Z"/><path class="cls-1" d="M321.44,158.05l7.93-1.72-.13-37.73-8.78-1.66,0-9.9,25.19-.09.17,49.33,7.88,1.66,0,9.84-32.22.11Zm24.13-65.66-16.42,0,0-12.31,16.42-.06Z"/><path class="cls-1" d="M360,137.84q0-14.4,6.19-23.25t17.55-8.89a17.44,17.44,0,0,1,9,2.25,19.91,19.91,0,0,1,6.66,6.47l1.16-7.65,14.28,0,.2,59.05q0,12-7.49,19.23t-20.76,7.24A41.31,41.31,0,0,1,377,191a45,45,0,0,1-9.57-3.43l3-11.54a51.9,51.9,0,0,0,7.89,2.65,34.5,34.5,0,0,0,8.32.95q6,0,9-3.68t2.95-10.19l0-4a18.35,18.35,0,0,1-6.34,5.25,18.67,18.67,0,0,1-8.37,1.83q-11.19,0-17.49-8.18T360,139ZM376.44,139q0,8,2.74,12.56t8.79,4.56a13.64,13.64,0,0,0,6.38-1.4,10.51,10.51,0,0,0,4.17-4l-.09-26.43a11.23,11.23,0,0,0-4.2-4.26,12.24,12.24,0,0,0-6.28-1.5,9.28,9.28,0,0,0-8.78,5.37q-2.76,5.36-2.74,14Z"/><path class="cls-1" d="M424,157.7l7.92-1.72-.22-64.62-8.78-1.65,0-9.9L448,79.72l.12,34.64a20.76,20.76,0,0,1,7-6.57,18.58,18.58,0,0,1,9.22-2.37q9.56,0,15,6.28t5.49,19.52l.09,24.58,7.88,1.66,0,9.84-31.38.11,0-9.84,7.08-1.71-.08-24.69q0-7.09-2.54-10t-7.46-2.93a13.61,13.61,0,0,0-6,1.26,11.87,11.87,0,0,0-4.29,3.5l.11,33,7.09,1.66,0,9.84-31.38.11Z"/><path class="cls-1" d="M522.1,91.45l.06,14.9,10.68,0,0,11.53-10.68,0,.1,31q0,3.54,1.48,5a5.23,5.23,0,0,0,3.94,1.51,27.68,27.68,0,0,0,2.95-.15c.85-.1,1.79-.26,2.84-.49L535,166.65a39.76,39.76,0,0,1-5.45,1.29,39.33,39.33,0,0,1-5.85.44q-8.49,0-13.09-4.63T505.94,149l-.11-31-8.94,0,0-11.53,8.94,0-.05-14.91Z"/><path class="cls-2" d="M602.71,111.19l-12.32,0L588.22,100A22.19,22.19,0,0,0,582,97.65a36.67,36.67,0,0,0-8.73-1q-6.75,0-10.42,2.88a8.85,8.85,0,0,0-3.66,7.35,8,8,0,0,0,3.88,6.82q3.86,2.66,13.32,5.61,13.56,3.72,20.59,9.88T604,145.44a19.47,19.47,0,0,1-8.27,16.62q-8.31,6.1-21.91,6.15a47.51,47.51,0,0,1-17.59-3,36.17,36.17,0,0,1-13.1-8.5l-.06-17.1,12.71,0,1.78,11.64a20,20,0,0,0,6.73,3.32,32,32,0,0,0,9.48,1.29q6.75,0,10.26-2.79a8.92,8.92,0,0,0,3.49-7.38,9.52,9.52,0,0,0-3.37-7.58q-3.36-2.86-11.75-5.36-14.58-4.17-22.08-9.94T542.8,106.9q0-10,8.38-16.31T572.36,84a49.46,49.46,0,0,1,17.22,2.81,39.77,39.77,0,0,1,13.07,7.6Z"/><path class="cls-2" d="M609.53,116l0-9.9,23.85-.08.81,7.08A19.43,19.43,0,0,1,640.6,107a17.37,17.37,0,0,1,8.76-2.17q11.31,0,17.58,8.77t6.32,23.21V138q0,13.49-6.17,21.73T649.69,168a19.43,19.43,0,0,1-8.5-1.75,17.49,17.49,0,0,1-6.37-5.18l.06,17.61,7.94,1.66,0,9.89-32.22.11,0-9.89,7.93-1.72-.21-61.07Zm47.31,20.87q0-8.59-2.91-13.94a9.38,9.38,0,0,0-8.8-5.31,12.4,12.4,0,0,0-6.32,1.54,10.88,10.88,0,0,0-4.12,4.35l.09,26.65a10.06,10.06,0,0,0,4.15,3.93,14,14,0,0,0,6.45,1.32q6,0,8.72-4.69T656.85,138Z"/><path class="cls-2" d="M680.57,135.67q0-13.6,7.54-22.32t21-8.76q13.49,0,21.14,8.59t7.7,22.3v1.18q.06,13.72-7.54,22.38t-21,8.7q-13.54,0-21.2-8.56t-7.7-22.33ZM697,136.8q0,8.32,3,13.34t9.46,5q6.36,0,9.29-5.09t2.91-13.34v-1.18q0-8.1-3-13.2t-9.41-5.09q-6.41,0-9.32,5.15T697,135.62Z"/><path class="cls-2" d="M769.22,90.6l0,14.91,10.68,0L780,117l-10.68,0,.1,31q0,3.54,1.48,5.06a5.21,5.21,0,0,0,4,1.5,25.51,25.51,0,0,0,2.95-.15c.84-.09,1.79-.26,2.84-.48l1.44,11.86a39.36,39.36,0,0,1-5.45,1.28,36.82,36.82,0,0,1-5.85.44q-8.49,0-13.09-4.62t-4.63-14.78l-.11-31-8.94,0,0-11.53,8.94,0,0-14.9Z"/><path class="cls-3" d="M264.53,222.19h-5.32l-4.6-8.55a3.87,3.87,0,0,0-1.6-1.71,5.14,5.14,0,0,0-2.39-.49H246.9v10.75h-4.83V195.4h11.86q4.56,0,6.93,2a7.3,7.3,0,0,1,2.38,5.87,7.48,7.48,0,0,1-1.73,5.07,8.28,8.28,0,0,1-4.89,2.6,5.52,5.52,0,0,1,3.42,3Zm-7.22-15.56a3.88,3.88,0,0,0,1.29-3.21,3.82,3.82,0,0,0-1.29-3.21,6.63,6.63,0,0,0-4.07-1h-6.38v8.48h6.38A6.42,6.42,0,0,0,257.31,206.63Z"/><path class="cls-3" d="M284.17,213.76H271.52a5.72,5.72,0,0,0,1.56,3.83,5.3,5.3,0,0,0,3.8,1.26,9,9,0,0,0,5.62-2l1.37,3.27a10,10,0,0,1-3.25,1.71,12.5,12.5,0,0,1-3.93.65,9.82,9.82,0,0,1-7.2-2.59,9.4,9.4,0,0,1-2.64-7.07,10.83,10.83,0,0,1,1.14-5.05,8.28,8.28,0,0,1,3.21-3.42,9.09,9.09,0,0,1,4.69-1.22,7.76,7.76,0,0,1,6.06,2.47,9.83,9.83,0,0,1,2.22,6.81Zm-11.23-6a6,6,0,0,0-1.42,3.5h8.59A5.39,5.39,0,0,0,279,207.7a3.76,3.76,0,0,0-3-1.2A4.05,4.05,0,0,0,272.94,207.71Z"/><path class="cls-3" d="M301.65,205.05q1.91,1.9,1.9,5.86v11.28H299v-2.85a5,5,0,0,1-2,2.32,6.1,6.1,0,0,1-3.21.84,7.53,7.53,0,0,1-3.38-.76,6,6,0,0,1-2.4-2.09,5.32,5.32,0,0,1-.87-3,4.68,4.68,0,0,1,1-3.23,6.36,6.36,0,0,1,3.4-1.71,31.34,31.34,0,0,1,6.5-.53H299v-.87a3.8,3.8,0,0,0-.82-2.74,3.66,3.66,0,0,0-2.71-.84,10.33,10.33,0,0,0-3.1.52,15.35,15.35,0,0,0-3.17,1.42l-1.33-3.27a16.39,16.39,0,0,1,7.94-2.28C298.45,203.15,300.39,203.79,301.65,205.05Zm-3.82,12.75a4.57,4.57,0,0,0,1.2-3.28v-.8h-.68a25.26,25.26,0,0,0-4,.23,3.85,3.85,0,0,0-2,.79,2.06,2.06,0,0,0-.61,1.56,2.61,2.61,0,0,0,.84,2,3,3,0,0,0,2.13.78A4,4,0,0,0,297.83,217.8Z"/><path class="cls-3" d="M308.19,222.19V195.4h4.75v26.79Z"/><path class="cls-3" d="M317.76,213.91v-3.76h11.33v3.76Z"/><path class="cls-3" d="M345.2,218.81l-.23,3.53a20.14,20.14,0,0,1-2.09.12q-3.92,0-5.77-1.81a7.11,7.11,0,0,1-1.87-5.37v-8.1h-3.57v-3.57h3.57v-5.55H340v5.55h4.91v3.57H340v8c0,2.48,1.16,3.72,3.46,3.72A13.37,13.37,0,0,0,345.2,218.81Z"/><path class="cls-3" d="M347.52,195h5.24v4.68h-5.24Zm.26,27.21V203.61h4.75v18.58Z"/><path class="cls-3" d="M384,205q1.54,1.88,1.55,5.75v11.4h-4.75V211a5.21,5.21,0,0,0-.72-3.09,2.69,2.69,0,0,0-2.32-1,3.63,3.63,0,0,0-3,1.29,5.51,5.51,0,0,0-1.06,3.61v10.37H369V211a5.29,5.29,0,0,0-.71-3.09,2.68,2.68,0,0,0-2.33-1,3.59,3.59,0,0,0-2.93,1.29,5.51,5.51,0,0,0-1.06,3.61v10.37h-4.75V203.61h4.63v2.62a5.59,5.59,0,0,1,2.32-2.3,7.14,7.14,0,0,1,3.38-.78c2.81,0,4.68,1.17,5.59,3.5a6.31,6.31,0,0,1,2.51-2.56,7.2,7.2,0,0,1,3.64-.94A5.76,5.76,0,0,1,384,205Z"/><path class="cls-3" d="M406.53,213.76H393.88a5.77,5.77,0,0,0,1.55,3.83,5.33,5.33,0,0,0,3.8,1.26,9,9,0,0,0,5.63-2l1.37,3.27a10,10,0,0,1-3.25,1.71,12.56,12.56,0,0,1-3.94.65,9.82,9.82,0,0,1-7.2-2.59,9.44,9.44,0,0,1-2.64-7.07,10.83,10.83,0,0,1,1.14-5.05,8.28,8.28,0,0,1,3.21-3.42,9.12,9.12,0,0,1,4.7-1.22,7.76,7.76,0,0,1,6.06,2.47,9.83,9.83,0,0,1,2.22,6.81Zm-11.23-6a5.92,5.92,0,0,0-1.42,3.5h8.58a5.39,5.39,0,0,0-1.14-3.51,3.73,3.73,0,0,0-3-1.2A4,4,0,0,0,395.3,207.71Z"/><path class="cls-3" d="M424.05,221.7a13.3,13.3,0,0,1-4.56-2.36l1.63-3.57a13.48,13.48,0,0,0,4.09,2.17,15.42,15.42,0,0,0,4.65.68,7.86,7.86,0,0,0,4.28-1,3.05,3.05,0,0,0,1.5-2.72,2.51,2.51,0,0,0-1.39-2.31,17.26,17.26,0,0,0-4.62-1.52,26.66,26.66,0,0,1-5.43-1.68,7.64,7.64,0,0,1-3.15-2.43,6.29,6.29,0,0,1-1.07-3.76,7.24,7.24,0,0,1,1.29-4.22,8.52,8.52,0,0,1,3.65-2.9,13.23,13.23,0,0,1,5.44-1.05,16.66,16.66,0,0,1,5.35.86,11.51,11.51,0,0,1,4.18,2.33l-1.63,3.57a12.38,12.38,0,0,0-7.9-2.85,7,7,0,0,0-4.09,1.05,3.36,3.36,0,0,0-1.5,2.91,2.66,2.66,0,0,0,1.33,2.39,15.46,15.46,0,0,0,4.52,1.56,30.45,30.45,0,0,1,5.49,1.69,8.07,8.07,0,0,1,3.23,2.37,5.77,5.77,0,0,1,1.12,3.65,7.08,7.08,0,0,1-1.27,4.2,8,8,0,0,1-3.68,2.78,15.37,15.37,0,0,1-5.69,1A19.3,19.3,0,0,1,424.05,221.7Z"/><path class="cls-3" d="M455.36,218.81l-.23,3.53a20,20,0,0,1-2.09.12q-3.92,0-5.77-1.81a7.11,7.11,0,0,1-1.87-5.37v-8.1h-3.57v-3.57h3.57v-5.55h4.75v5.55h4.91v3.57h-4.91v8c0,2.48,1.16,3.72,3.46,3.72A13.37,13.37,0,0,0,455.36,218.81Z"/><path class="cls-3" d="M475,203.61v18.58h-4.64v-2.85a6,6,0,0,1-2.36,2.34,6.83,6.83,0,0,1-3.34.82q-6.84,0-6.84-7.68V203.61h4.75v11.25a4.47,4.47,0,0,0,.8,2.92,3.08,3.08,0,0,0,2.51.95,4.08,4.08,0,0,0,3.17-1.31,4.93,4.93,0,0,0,1.2-3.47V203.61Z"/><path class="cls-3" d="M497.69,195.4v26.79H493v-3a5.94,5.94,0,0,1-2.41,2.43,7.21,7.21,0,0,1-3.59.88,7.71,7.71,0,0,1-4.28-1.22,8.13,8.13,0,0,1-2.93-3.44,12,12,0,0,1-1-5.11,11.59,11.59,0,0,1,1-5,7.68,7.68,0,0,1,7.21-4.53,7.41,7.41,0,0,1,3.57.84,5.78,5.78,0,0,1,2.39,2.36V195.4Zm-5.95,21.85a8.55,8.55,0,0,0,0-8.87,4.18,4.18,0,0,0-3.47-1.54,4.35,4.35,0,0,0-3.54,1.52,6.73,6.73,0,0,0-1.25,4.37,7.11,7.11,0,0,0,1.25,4.48,4.68,4.68,0,0,0,7,0Z"/><path class="cls-3" d="M518.71,213.76H506.05a5.72,5.72,0,0,0,1.56,3.83,5.31,5.31,0,0,0,3.8,1.26,8.93,8.93,0,0,0,5.62-2l1.37,3.27a9.89,9.89,0,0,1-3.25,1.71,12.45,12.45,0,0,1-3.93.65,9.82,9.82,0,0,1-7.2-2.59,9.44,9.44,0,0,1-2.64-7.07,10.83,10.83,0,0,1,1.14-5.05,8.28,8.28,0,0,1,3.21-3.42,9.09,9.09,0,0,1,4.69-1.22,7.76,7.76,0,0,1,6.06,2.47,9.84,9.84,0,0,1,2.23,6.81Zm-11.23-6a5.92,5.92,0,0,0-1.43,3.5h8.59a5.39,5.39,0,0,0-1.14-3.51,3.76,3.76,0,0,0-3-1.2A4,4,0,0,0,507.48,207.71Z"/><path class="cls-3" d="M538.16,205.05q1.64,1.9,1.64,5.74v11.4h-4.75V211.06a5,5,0,0,0-.82-3.16,3.18,3.18,0,0,0-2.57-1,4.33,4.33,0,0,0-3.28,1.29,4.76,4.76,0,0,0-1.24,3.46v10.52h-4.75V203.61H527v2.77a6.48,6.48,0,0,1,2.54-2.39,7.66,7.66,0,0,1,3.61-.84A6.24,6.24,0,0,1,538.16,205.05Z"/><path class="cls-3" d="M555.68,218.81l-.23,3.53a20.14,20.14,0,0,1-2.09.12c-2.61,0-4.53-.6-5.78-1.81a7.15,7.15,0,0,1-1.86-5.37v-8.1h-3.57v-3.57h3.57v-5.55h4.75v5.55h4.9v3.57h-4.9v8c0,2.48,1.16,3.72,3.46,3.72A13.37,13.37,0,0,0,555.68,218.81Z"/><path class="cls-3" d="M575.1,222.19V199.43h-8.74v-4h22.38v4H580v22.76Z"/><path class="cls-3" d="M600.75,207.11l-2.78.26q-4.71.49-4.71,4.79v10h-4.75V203.61H593v3.27q1.44-3.34,6-3.65l1.44-.11Z"/><path class="cls-3" d="M616.59,205.05q1.9,1.9,1.9,5.86v11.28H614v-2.85a5,5,0,0,1-2,2.32,6.1,6.1,0,0,1-3.21.84,7.57,7.57,0,0,1-3.39-.76,6.09,6.09,0,0,1-2.39-2.09,5.32,5.32,0,0,1-.87-3,4.68,4.68,0,0,1,1-3.23,6.36,6.36,0,0,1,3.4-1.71,31.34,31.34,0,0,1,6.5-.53h1v-.87a3.8,3.8,0,0,0-.82-2.74,3.66,3.66,0,0,0-2.71-.84,10.33,10.33,0,0,0-3.1.52,15.12,15.12,0,0,0-3.17,1.42l-1.33-3.27a16.39,16.39,0,0,1,7.94-2.28C613.39,203.15,615.33,203.79,616.59,205.05Zm-3.82,12.75a4.57,4.57,0,0,0,1.2-3.28v-.8h-.68a25.26,25.26,0,0,0-4,.23,3.81,3.81,0,0,0-2,.79,2,2,0,0,0-.61,1.56,2.61,2.61,0,0,0,.84,2,3,3,0,0,0,2.13.78A4.06,4.06,0,0,0,612.77,217.8Z"/><path class="cls-3" d="M626.53,221.32a8,8,0,0,1-3.29-3.35,11.62,11.62,0,0,1,.06-10.16,8.41,8.41,0,0,1,3.4-3.44,10.39,10.39,0,0,1,5.09-1.22,12.1,12.1,0,0,1,3.86.63,8.17,8.17,0,0,1,3,1.69l-1.37,3.35a8.75,8.75,0,0,0-2.49-1.45,7.29,7.29,0,0,0-2.6-.49,4.85,4.85,0,0,0-3.84,1.54,7.77,7.77,0,0,0,0,8.81,4.85,4.85,0,0,0,3.84,1.54,7.29,7.29,0,0,0,2.6-.49,8.75,8.75,0,0,0,2.49-1.45l1.37,3.31a8.51,8.51,0,0,1-3.12,1.73,12.42,12.42,0,0,1-3.95.63A10.43,10.43,0,0,1,626.53,221.32Z"/><path class="cls-3" d="M660.1,222.19h-5.89l-8-8.47v8.47h-4.75V195.4h4.75v16.34l7.49-8.09h5.77l-8.36,8.89Z"/><path class="cls-3" d="M661.39,195h5.25v4.68h-5.25Zm.27,27.21V203.61h4.75v18.58Z"/><path class="cls-3" d="M686.89,205.05q1.64,1.9,1.63,5.74v11.4h-4.75V211.06a5,5,0,0,0-.81-3.16,3.18,3.18,0,0,0-2.57-1,4.32,4.32,0,0,0-3.28,1.29,4.76,4.76,0,0,0-1.24,3.46v10.52h-4.75V203.61h4.64v2.77A6.48,6.48,0,0,1,678.3,204a7.66,7.66,0,0,1,3.61-.84A6.24,6.24,0,0,1,686.89,205.05Z"/><path class="cls-3" d="M711.25,203.61v16.87q0,4.38-2.42,6.61c-1.6,1.5-4,2.25-7.12,2.25a17.15,17.15,0,0,1-4.67-.63,13.3,13.3,0,0,1-3.92-1.77l1.33-3.34a13.69,13.69,0,0,0,7.15,2.09q4.93,0,4.94-4.87v-2.43a5.81,5.81,0,0,1-2.44,2.42,7.58,7.58,0,0,1-3.64.85,8.1,8.1,0,0,1-4.32-1.16,7.93,7.93,0,0,1-2.94-3.25,10.47,10.47,0,0,1-1.07-4.82,10.75,10.75,0,0,1,1-4.85,7.91,7.91,0,0,1,2.94-3.27,8.19,8.19,0,0,1,4.34-1.16,7.59,7.59,0,0,1,3.64.86,5.79,5.79,0,0,1,2.44,2.41v-2.81Zm-6,12.88a6,6,0,0,0,1.28-4.06,6.11,6.11,0,0,0-1.28-4.11,5,5,0,0,0-7.08,0,6,6,0,0,0-1.3,4.11,5.94,5.94,0,0,0,1.3,4,5,5,0,0,0,7.08,0Z"/><path class="cls-3" d="M747,222.19l-2.7-6.27h-13l-2.7,6.27H723.6l12.12-26.79h4l12.12,26.79Zm-14.14-10.07h9.81l-4.91-11.4Z"/><path class="cls-3" d="M769,204.37a8,8,0,0,1,2.92,3.44,11.84,11.84,0,0,1,1,5.11,11.42,11.42,0,0,1-1,5.05,7.65,7.65,0,0,1-7.2,4.53,7.31,7.31,0,0,1-3.53-.84,5.9,5.9,0,0,1-2.4-2.32V229h-4.75V203.61h4.68v2.81a5.77,5.77,0,0,1,2.41-2.41,7.41,7.41,0,0,1,3.59-.86A7.73,7.73,0,0,1,769,204.37Zm-2,12.9a6.67,6.67,0,0,0,1.26-4.35,7.07,7.07,0,0,0-1.26-4.48,4.17,4.17,0,0,0-3.49-1.6A4.24,4.24,0,0,0,760,208.4a8.57,8.57,0,0,0,0,8.85,4.74,4.74,0,0,0,7,0Z"/><path class="cls-3" d="M791.67,204.37a8.06,8.06,0,0,1,2.93,3.44,11.84,11.84,0,0,1,1,5.11,11.42,11.42,0,0,1-1,5.05,7.68,7.68,0,0,1-7.2,4.53,7.28,7.28,0,0,1-3.53-.84,5.9,5.9,0,0,1-2.4-2.32V229h-4.75V203.61h4.68v2.81a5.77,5.77,0,0,1,2.41-2.41,7.41,7.41,0,0,1,3.59-.86A7.67,7.67,0,0,1,791.67,204.37Zm-2,12.9a6.67,6.67,0,0,0,1.26-4.35,7.07,7.07,0,0,0-1.26-4.48,4.17,4.17,0,0,0-3.49-1.6,4.23,4.23,0,0,0-3.52,1.56,8.57,8.57,0,0,0,0,8.85,4.74,4.74,0,0,0,7,0Z"/><path class="cls-2" d="M30.21,237.87A28,28,0,0,1,2.79,216.1a28.91,28.91,0,0,1-.72-6.36v-130A28.17,28.17,0,0,1,30.21,51.62H180.34a28,28,0,0,1,27.77,23.62,28.5,28.5,0,0,1,.36,4.52v130a28.16,28.16,0,0,1-28.13,28.13Z"/><path class="cls-4" d="M180.34,53.69a26.07,26.07,0,0,1,25.73,21.88,26.42,26.42,0,0,1,.33,4.19v130a26.06,26.06,0,0,1-26.06,26.06H30.21a26.08,26.08,0,0,1-25.4-20.17,26.65,26.65,0,0,1-.66-5.89v-130A26.07,26.07,0,0,1,30.21,53.69H180.34m0-4.14H30.21A30.24,30.24,0,0,0,0,79.76v130a30.54,30.54,0,0,0,.77,6.82A30.09,30.09,0,0,0,30.21,240H180.34a30.25,30.25,0,0,0,30.21-30.21v-130a30.2,30.2,0,0,0-30.21-30.21Z"/><path class="cls-5" d="M50.63,105.69l-9.39.06h-1.1a3.91,3.91,0,0,0-3.89,3.93l.15,23.4A3.92,3.92,0,0,0,40.33,137h1.1V137l9.4-.06v-2.2l-6,0a3.83,3.83,0,0,0,.46-1.78l-.14-23.4a3.9,3.9,0,0,0-.44-1.7l5.92,0Z"/><path class="cls-5" d="M186.38,215.13c0,3.38-1.72,6.14-3.87,6.15l-152.09,1c-2.16,0-3.93-2.72-4-6.1v-2c0-3.39,1.71-6.13,3.87-6.15l152.09-1c2.15,0,3.92,2.71,3.94,6.1Z"/><polygon class="cls-6" points="191.22 155.59 181.46 145.83 181.46 132.03 191.22 122.28 205.02 122.28 214.78 132.03 214.78 145.83 205.02 155.59 191.22 155.59"/><path class="cls-5" d="M204.35,123.89l8.82,8.81v12.47L204.35,154H191.89l-8.81-8.81V132.7l8.81-8.81h12.46m1.34-3.23H190.55l-.94,1-8.81,8.81-1,1V146.5l1,.95,8.81,8.81.94.94h15.14l.94-.94,8.82-8.81.94-.95V131.37l-.94-1-8.82-8.81-.94-1Z"/><path class="cls-7" d="M206.89,140.49a.44.44,0,0,1-.35-.16,10.78,10.78,0,0,0-15.95-.11.48.48,0,1,1-.7-.65,11.72,11.72,0,0,1,17.36.13.47.47,0,0,1,0,.67A.47.47,0,0,1,206.89,140.49Z"/><path class="cls-7" d="M204.3,144.27a.31.31,0,0,1-.25-.13,6.85,6.85,0,0,0-11.36-.1.31.31,0,0,1-.48,0,.47.47,0,0,1,0-.58,7.47,7.47,0,0,1,12.37.11.48.48,0,0,1,0,.58A.32.32,0,0,1,204.3,144.27Z"/><path class="cls-7" d="M210.07,137.55a.44.44,0,0,1-.35-.16,15.33,15.33,0,0,0-11.21-4.9,15.09,15.09,0,0,0-11.09,4.79.48.48,0,1,1-.7-.66,16.08,16.08,0,0,1,11.79-5.09,16.27,16.27,0,0,1,11.91,5.21.48.48,0,0,1,0,.68A.5.5,0,0,1,210.07,137.55Z"/><circle class="cls-7" cx="198.68" cy="146.91" r="1.24"/><path class="cls-5" d="M162.1,104.22l9.4.06h1.1a3.91,3.91,0,0,1,3.88,3.93l-.15,23.4a3.91,3.91,0,0,1-3.93,3.88h-1.1v.08l-9.4-.06v-2.2l6,0a3.72,3.72,0,0,1-.47-1.78l.15-23.4a3.89,3.89,0,0,1,.43-1.7l-5.92,0Z"/><path class="cls-5" d="M168.84,89.36c-.07-12.1-9.44-21.85-20.93-21.78l-84.54.53c-10.23.07-20.73,10-20.66,22l.35,54.59,126.13-.8Z"/><rect class="cls-5" x="46.88" y="208.13" width="21" height="29.59" rx="3.91" transform="translate(-1.41 0.37) rotate(-0.36)"/><rect class="cls-5" x="145.66" y="207.5" width="20.99" height="29.59" rx="3.91" transform="translate(-1.4 0.99) rotate(-0.36)"/><path class="cls-5" d="M181.41,156.23a20.64,20.64,0,0,0-20.78-20.52l-109.45.69a20.64,20.64,0,0,0-20.52,20.78L31,214.49l150.75-1Z"/><line class="cls-8" x1="166.05" y1="139.61" x2="182.28" y2="139.61"/><path class="cls-9" d="M165.22,144.27,46.75,145l-.33-52.13A22,22,0,0,1,49.21,82,19.31,19.31,0,0,1,65.82,71.83l79.41-.5A19.35,19.35,0,0,1,162.35,82a21.9,21.9,0,0,1,2.54,10.19Z"/><path class="cls-10" d="M177.37,157.91c-.07-10.27-8.87-18.54-19.65-18.47l-103.51.65c-10.79.07-19.48,8.45-19.42,18.72L35,198.4a12,12,0,0,0,12.09,11.93l118.56-.75a12,12,0,0,0,11.93-12.09Z"/><path class="cls-5" d="M163.87,166.74a3.93,3.93,0,0,1-3.93,3.93l-107.57.68a3.93,3.93,0,0,1-4-3.88l0-4.65a3.93,3.93,0,0,1,3.93-3.93l107.57-.68a3.92,3.92,0,0,1,4,3.88Z"/><path class="cls-5" d="M134.1,184.34a2,2,0,0,1-1.94,2l-53.95.34a2,2,0,0,1-2-1.94h0a2,2,0,0,1,1.94-2l54-.34a2,2,0,0,1,2,1.94Z"/><path class="cls-5" d="M134.2,196.28a2,2,0,0,1-1.94,2l-53.95.34a2,2,0,0,1-2-1.94h0a2,2,0,0,1,1.94-2l54-.34a2,2,0,0,1,2,1.94Z"/><path class="cls-11" d="M157.71,139.44l-103.51.65a19.51,19.51,0,0,0-17.09,10.33l137.82-.87A19.48,19.48,0,0,0,157.71,139.44Z"/><circle class="cls-12" cx="57.37" cy="189.57" r="8.87"/><circle class="cls-13" cx="156.16" cy="189.57" r="8.87"/><path class="cls-11" d="M162.39,82H49.25A19.31,19.31,0,0,1,65.86,71.83l79.41-.5A19.35,19.35,0,0,1,162.39,82Z"/><rect class="cls-5" x="54.15" y="95.96" width="48.58" height="35.89" rx="5.6"/><rect class="cls-5" x="110.23" y="95.96" width="48.58" height="35.89" rx="5.6"/><path class="cls-6" d="M104.86,89.09c-1.36-1.4-33.32-34.41-33.32-53a34.48,34.48,0,0,1,69,0c0,18.6-32,51.61-33.32,53L106,90.27Zm.7-67.5h-.33l-.29,0-.34,0h-.1l-.3,0a5.24,5.24,0,0,0-.61.09A14.52,14.52,0,0,0,91.77,33.36q-.12.64-.18,1.23a14.56,14.56,0,0,0-.08,1.49,13.92,13.92,0,0,0,.08,1.48c0,.4.1.82.18,1.24a14.52,14.52,0,0,0,11.8,11.58l.6.09.33,0h.1l.27,0,.35,0h.8a16.18,16.18,0,0,0,1.83-.11,14.61,14.61,0,0,0,12.6-12.91,14.32,14.32,0,0,0,.07-1.49,13.93,13.93,0,0,0-.07-1.47,14.6,14.6,0,0,0-12.6-12.91,14.17,14.17,0,0,0-1.83-.12Z"/><path class="cls-5" d="M106,3.22a32.86,32.86,0,0,1,32.86,32.86C138.88,54.23,106,88,106,88S73.16,54.23,73.16,36.08A32.86,32.86,0,0,1,106,3.22m0,49a17.15,17.15,0,0,0,2-.12,16.14,16.14,0,0,0,14-14.35,15.08,15.08,0,0,0,0-3.29,16.12,16.12,0,0,0-14-14.34,15.27,15.27,0,0,0-2-.13h-.85l-.39,0-.39,0-.4.05c-.23,0-.46.06-.69.1A16.12,16.12,0,0,0,90.19,33.06a12.39,12.39,0,0,0-.2,1.38,15.08,15.08,0,0,0,0,3.29,12.39,12.39,0,0,0,.2,1.38A16.1,16.1,0,0,0,103.3,52l.69.11.4,0,.39,0,.39,0,.33,0H106M106,0A36.13,36.13,0,0,0,69.93,36.08c0,19.24,32.4,52.72,33.78,54.13L106,92.58l2.31-2.37c1.38-1.41,33.78-34.89,33.78-54.13A36.13,36.13,0,0,0,106,0Zm0,49h-1l-.18,0h-.22l-.18,0h-.06l-.49-.07A12.91,12.91,0,0,1,93.36,38.51a9.76,9.76,0,0,1-.16-1.08,12.08,12.08,0,0,1-.07-1.35c0-.45,0-.89.06-1.3s.09-.73.16-1.1a12.91,12.91,0,0,1,10.49-10.3l.52-.08h0l.19,0h.5l.18,0H106a12.6,12.6,0,0,1,1.62.11,13,13,0,0,1,11.2,11.46,11.43,11.43,0,0,1,.07,1.32c0,.46,0,.9-.06,1.31a13,13,0,0,1-11.2,11.49A15,15,0,0,1,106,49Z"/></g></g></svg>