<svg id="flat" height="512" viewBox="0 0 512 512" width="512" xmlns="http://www.w3.org/2000/svg"><path d="m272 308.24v179.76h-232v-101.67a63.73618 63.73618 0 0 1 -16-42.33v-35.76a64.00745 64.00745 0 0 1 31.07007-54.88l30.35986-18.22 18.57007-11.14h88l36.78 22.07007 12.1499 7.28992a64.00745 64.00745 0 0 1 31.0701 54.88001z" fill="#f07f2f"/><path d="m228.78 246.07-43.37 81.93-42.35 16-57.63-108.86 18.57-11.14h88z" fill="#d8dbdd"/><path d="m184 240v16l-16 24 17.41 48-42.35 16-7.605-14.365 16.545-49.635-16-24v-16z" fill="#f6bb00"/><path d="m168 288h-16a8 8 0 0 1 0-16h16a8 8 0 0 1 0 16z" fill="#eda600"/><path d="m120 72v-24a24 24 0 0 1 24-24h32a56 56 0 0 1 56 56v16l-18.34315-18.34315a19.31369 19.31369 0 0 0 -13.65685-5.65685 19.31369 19.31369 0 0 0 -13.65684 5.65685l-12.68631 12.6863a19.31366 19.31366 0 0 1 -13.65685 5.65685 19.31369 19.31369 0 0 1 -13.65684-5.65685l-12.6863-12.6863a19.31369 19.31369 0 0 0 -13.65686-5.65685z" fill="#b1792c"/><path d="m112 40a24 24 0 0 0 -24 24v32l18.34315-18.34315a19.3137 19.3137 0 0 1 13.65685-5.65685v-24a8 8 0 0 0 -8-8z" fill="#956625"/><path d="m88 96v80.00007a71.99993 71.99993 0 0 0 71.99993 71.99993h.00014a71.99993 71.99993 0 0 0 71.99993-71.99993v-80.00007l-18.34315-18.34315a19.31369 19.31369 0 0 0 -13.65685-5.65685 19.31369 19.31369 0 0 0 -13.65684 5.65685l-12.68631 12.6863a19.31366 19.31366 0 0 1 -13.65685 5.65685 19.31369 19.31369 0 0 1 -13.65684-5.65685l-12.6863-12.6863a19.31369 19.31369 0 0 0 -13.65686-5.65685 19.31369 19.31369 0 0 0 -13.65684 5.65685z" fill="#f5c99d"/><path d="m112 120h32v16h-32z" fill="#b1792c"/><circle cx="136" cy="152" fill="#956625" r="8"/><path d="m176 120h32v16h-32z" fill="#b1792c"/><circle cx="200" cy="152" fill="#956625" r="8"/><path d="m160 208h-8v-16h8a8.00917 8.00917 0 0 0 8-8v-16h16v16a24.0275 24.0275 0 0 1 -24 24z" fill="#c79369"/><path d="m240 168-32 16v48l32 16z" fill="#008ee6"/><path d="m39.9998 386.333a63.84568 63.84568 0 0 0 48.0002 21.667h41.73867a96 96 0 0 0 55.05238-17.35374l55.20895-38.64626h32v136h-232z" fill="#de6a1e"/><path d="m240 168h64v80h-64z" fill="#009ff5"/><path d="m304 248 112 32v-144l-112 32z" fill="#008ee6"/><path d="m416 120h32v176h-32z" fill="#16aefa"/><g fill="#008ee6"><path d="m248 248v104l24 24h16v-128z"/><path d="m472 240h24v16h-24z"/><path d="m472 200h24v16h-24z"/><path d="m472 160h24v16h-24z"/></g><path d="m128.87793 352h-32.87793v-16h32.87793a24.71366 24.71366 0 0 0 10.29492-2.23l116.7168-53.05273 6.62109 14.56542-116.71674 53.05276a40.60063 40.60063 0 0 1 -16.91607 3.66455z" fill="#de6a1e"/><path d="m224 304 32-24h56v32l-16 32-56 8z" fill="#f5c99d"/></svg>