<svg id="LOGO" xmlns="http://www.w3.org/2000/svg" width="429" height="186" viewBox="0 0 429 186">
  <metadata><?xpacket begin="﻿" id="W5M0MpCehiHzreSzNTczkc9d"?>
<x:xmpmeta xmlns:x="adobe:ns:meta/" x:xmptk="Adobe XMP Core 5.6-c140 79.160451, 2017/05/06-01:08:21        ">
   <rdf:RDF xmlns:rdf="http://www.w3.org/1999/02/22-rdf-syntax-ns#">
      <rdf:Description rdf:about=""/>
   </rdf:RDF>
</x:xmpmeta>
                                                                                                    
                                                                                                    
                                                                                                    
                                                                                                    
                                                                                                    
                                                                                                    
                                                                                                    
                                                                                                    
                                                                                                    
                                                                                                    
                                                                                                    
                                                                                                    
                                                                                                    
                                                                                                    
                                                                                                    
                                                                                                    
                                                                                                    
                                                                                                    
                                                                                                    
                                                                                                    
                           
<?xpacket end="w"?></metadata>
<defs>
    <style>
      .cls-1 {
        fill: #0c6ac7;
      }

      .cls-1, .cls-2, .cls-3 {
        fill-rule: evenodd;
      }

      .cls-2 {
        fill: #a0a3b0;
      }

      .cls-3 {
        fill: #fac853;
      }
    </style>
  </defs>
  <g>
    <path class="cls-1" d="M78.752,15.984A34.987,34.987,0,0,0,45.167,47.29a34.626,34.626,0,0,0,.468,9.972h0s0.054,0.375.234,1.088a34.588,34.588,0,0,0,2.357,6.886c3.508,8.241,11.621,22.031,29.826,37.032a3.06,3.06,0,0,0,3.886,0c18.2-14.984,26.318-28.773,29.844-37.05a33.1,33.1,0,0,0,2.356-6.886c0.162-.7.234-1.088,0.234-1.088h0A34.711,34.711,0,0,0,78.752,15.984ZM80,78a27,27,0,1,1,27-27A27,27,0,0,1,80,78Z"/>
    <g>
      <path class="cls-2" d="M37.542,88.882l6.037-6.107,37.84,35.191L117.64,81.2l6.675,5.967L81.994,130.46Z"/>
      <path class="cls-2" d="M31.69,146.179l19.527-19.82L22.725,99.574l5.9-6.727,35.247,33.032L38.445,152.425"/>
      <path class="cls-2" d="M115.237,108.414l14.246-13.933,6.018,6.125-7.492,8.168,17.44,16.7-6.018,6.366Z"/>
      <path class="cls-2" d="M133.006,145.47l-21.8-20.24L100.768,135.2l21.984,20.66-6.018,6.246-28.37-26.3,22.414-22.942,28.43,26.425Z"/>
      <path class="cls-2" d="M71.66,132.192L46.238,158.378l5.9,5.645,19.65-19.1,28.492,25.945,6.386-6.425"/>
    </g>
    <path id="Forma_1" data-name="Forma 1" class="cls-1" d="M95.081,40.94H93.818V38.6A4.508,4.508,0,0,0,89.405,34H71.595a4.508,4.508,0,0,0-4.412,4.6V40.94H65.919A0.939,0.939,0,0,0,65,41.9v5.3a0.939,0.939,0,0,0,.919.958h1.264V59.592a2.549,2.549,0,0,0-.8,1.868v1.772a2.459,2.459,0,0,0,2.407,2.508h0.3v2.522a0.724,0.724,0,0,0,.708.738H73.05a0.723,0.723,0,0,0,.708-0.738V65.74H87.242v2.522A0.723,0.723,0,0,0,87.95,69h3.256a0.724,0.724,0,0,0,.708-0.738V65.74h0.3a2.459,2.459,0,0,0,2.407-2.508V61.46a2.549,2.549,0,0,0-.8-1.868V48.159h1.264A0.939,0.939,0,0,0,96,47.2V41.9A0.939,0.939,0,0,0,95.081,40.94Zm-3.992.374V52.629H81.7V41.314h9.386ZM75.82,36.4H85.18a1.227,1.227,0,0,1,0,2.453H75.82A1.227,1.227,0,0,1,75.82,36.4Zm-5.91,4.916H79.3V52.629H69.911V41.314Zm4.2,16.363a1.186,1.186,0,0,1-1.16,1.209H71.038a1.186,1.186,0,0,1-1.159-1.209V56.332a1.186,1.186,0,0,1,1.159-1.209h1.914a1.186,1.186,0,0,1,1.16,1.209v1.345Zm12.777,0V56.332a1.186,1.186,0,0,1,1.16-1.209h1.914a1.186,1.186,0,0,1,1.159,1.209v1.345a1.186,1.186,0,0,1-1.159,1.209H88.048A1.186,1.186,0,0,1,86.889,57.677Z"/>
  </g>
  <path class="cls-3" d="M2,6H168v4H6V176H164V10h4V180H2V6Z"/>
  <path id="Student" class="cls-2" d="M197.7,91.321q5.277,0,7.362-2.125t2.086-7.225V61.656q0-3.484-1.575-4.887a6.636,6.636,0,0,0-4.553-1.4h-7.745a2.383,2.383,0,0,1-1.405-.34,1.482,1.482,0,0,1-.468-1.275V42.531a1.284,1.284,0,0,1,1.532-1.36H206.89L204.762,29.7H187.741q-4.341,0-6.341,2.168a8.248,8.248,0,0,0-2,5.822V58.6a9.878,9.878,0,0,0,.553,3.655,5.022,5.022,0,0,0,1.532,2.125,4.871,4.871,0,0,0,2.213.978,15.235,15.235,0,0,0,2.6.212h6.383a4.384,4.384,0,0,1,1.787.255,1.623,1.623,0,0,1,.511,1.53v11.22a1.209,1.209,0,0,1-1.447,1.275H180.251l2.213,11.475H197.7ZM213.783,29.7l-3.234,11.475h8.256v50.15h12.6V41.171h8.256L236.593,29.7h-22.81Zm52.428,61.625q5.361,0,7.489-2.21t2.128-7.31V29.7h-12.6v49.47a1.956,1.956,0,0,1-.213,1.02,1.093,1.093,0,0,1-.979.34H257.7a1.091,1.091,0,0,1-.979-0.34,1.947,1.947,0,0,1-.213-1.02V29.7h-12.6V81.8q0,5.1,2.128,7.31t7.489,2.21h12.682Zm33.7-50.83a1.017,1.017,0,0,1,1.106,1.19v37.57a1.725,1.725,0,0,1-.213.978,1.176,1.176,0,0,1-.978.3h-5.788V40.491h5.873Zm13.362-3.315a7.848,7.848,0,0,0-1.83-5.44,7,7,0,0,0-5.49-2.04H281.785V91.321h21.873q5.362,0,7.49-2.21t2.128-7.31V37.176Zm5.957,54.145h23.49l2.128-11.475H331.914V66.416h10.213V55.791H331.914V41.171h13.447L343.234,29.7h-24V91.321Zm31.234,0h11.405V65.566l6.639,25.755h12.681V29.7H368.511V54.431l-6.3-24.735H350.467V91.321ZM388.681,29.7l-3.235,11.475H393.7v50.15h12.6V41.171h8.256L411.49,29.7H388.681Z"/>
  <path id="Tracker" class="cls-1" d="M180.932,100.7L177.7,112.171h8.255v50.15h12.6v-50.15h8.255L203.741,100.7H180.932Zm48.512,10.8a1.092,1.092,0,0,1,1.192,1.275v18.7a1.092,1.092,0,0,1-1.192,1.275H223.4v-21.25h6.043Zm13.362-2.8a8.25,8.25,0,0,0-2-5.822q-2-2.168-6.34-2.168h-23.4v61.625H223.4V142.686h1.617l5.958,19.635h12.766l-6.468-19.635a5.044,5.044,0,0,0,4.128-1.7,5.741,5.741,0,0,0,1.4-3.74v-28.56ZM268.6,154.671l1.107,7.65h12.425L270.978,100.7H257.786l-11.149,61.625h12.426l1.106-7.65H268.6Zm-4.17-31.62,2.808,21.845h-5.7Zm44.768,39.27,2.213-11.475h-11.83a1.016,1.016,0,0,1-1.107-1.19V113.361a1.016,1.016,0,0,1,1.107-1.19h11.83L309.278,100.7H293.022a6.953,6.953,0,0,0-7.234,7.565V152.8q0,5.1,2.128,7.31t7.489,2.21h13.788Zm19.915-35.19V100.7h-12.6v61.625h12.6V136.906h2.468l4.852,25.415H349.96l-7.319-33.235,7.4-28.39H337.279l-6.3,26.435h-1.873Zm25.192,35.19h23.49l2.128-11.475H366.981v-13.43h10.213V126.791H366.981v-14.62h13.447L378.3,100.7h-24v61.625Zm49.618-50.83a1.091,1.091,0,0,1,1.191,1.275v18.7a1.091,1.091,0,0,1-1.191,1.275h-6.043v-21.25h6.043Zm13.362-2.8a8.25,8.25,0,0,0-2-5.822q-2-2.168-6.341-2.168H385.534v61.625h12.341V142.686h1.617l5.958,19.635h12.766l-6.468-19.635a5.044,5.044,0,0,0,4.128-1.7,5.741,5.741,0,0,0,1.4-3.74v-28.56Z"/>
</svg>
